<svg xmlns="http://www.w3.org/2000/svg" viewBox="0 0 585.7 20.26"><defs><style>.cls-1{fill:#231815;}</style></defs><g id="レイヤー_2" data-name="レイヤー 2"><g id="デザイン"><path class="cls-1" d="M12.9,13a6.14,6.14,0,0,1-.89,1,5.75,5.75,0,0,1-1.2.86,6.69,6.69,0,0,1-1.5.58,6.83,6.83,0,0,1-1.8.22,7.8,7.8,0,0,1-3-.57,7,7,0,0,1-2.38-1.58A6.93,6.93,0,0,1,.56,11.2a8,8,0,0,1-.56-3,7.86,7.86,0,0,1,.57-3A7.27,7.27,0,0,1,2.15,2.75,7.21,7.21,0,0,1,4.53,1.18a7.68,7.68,0,0,1,3-.57A7.28,7.28,0,0,1,9.06.77a7.36,7.36,0,0,1,1.44.47A6.09,6.09,0,0,1,11.72,2a4.29,4.29,0,0,1,.91,1l-1.22.9a3.7,3.7,0,0,0-.6-.69,3.82,3.82,0,0,0-.88-.61,5.45,5.45,0,0,0-1.11-.43,4.85,4.85,0,0,0-1.29-.16A5.92,5.92,0,0,0,5,2.41,5.82,5.82,0,0,0,3.13,3.78,6,6,0,0,0,2,5.78a6.78,6.78,0,0,0-.41,2.39A7.06,7.06,0,0,0,2,10.56a6.29,6.29,0,0,0,1.19,2A5.82,5.82,0,0,0,5,13.93a6.05,6.05,0,0,0,2.49.5,5.63,5.63,0,0,0,2.36-.51,4.45,4.45,0,0,0,1.87-1.62Z"/><path class="cls-1" d="M24.82,10.62a5.18,5.18,0,0,1-.37,2A4.79,4.79,0,0,1,23.4,14.2a4.93,4.93,0,0,1-1.61,1.05,5.84,5.84,0,0,1-4.09,0,4.65,4.65,0,0,1-2.65-2.64,5,5,0,0,1-.38-2,5.06,5.06,0,0,1,.38-2A4.68,4.68,0,0,1,17.7,6a5.69,5.69,0,0,1,4.09,0A4.78,4.78,0,0,1,23.4,7a4.65,4.65,0,0,1,1.05,1.58A5.23,5.23,0,0,1,24.82,10.62Zm-1.46,0a4.37,4.37,0,0,0-.25-1.5,3.82,3.82,0,0,0-.72-1.22,3.54,3.54,0,0,0-1.15-.82,3.9,3.9,0,0,0-3,0,3.46,3.46,0,0,0-1.13.82,3.67,3.67,0,0,0-.73,1.22,4.37,4.37,0,0,0-.25,1.5,4.28,4.28,0,0,0,.25,1.49,3.62,3.62,0,0,0,.73,1.23,3.43,3.43,0,0,0,1.13.81,4,4,0,0,0,3,0,3.52,3.52,0,0,0,1.15-.81,3.76,3.76,0,0,0,.72-1.23A4.28,4.28,0,0,0,23.36,10.61Z"/><path class="cls-1" d="M29,20.26H27.62V5.86H29V7.5h0a3.81,3.81,0,0,1,1.57-1.41,4.56,4.56,0,0,1,2-.48,5.05,5.05,0,0,1,2,.39A4.55,4.55,0,0,1,36.2,7.06a4.68,4.68,0,0,1,1,1.58,5.36,5.36,0,0,1,.35,2,5.34,5.34,0,0,1-.35,2,4.83,4.83,0,0,1-1,1.59,4.7,4.7,0,0,1-1.54,1.06,5.23,5.23,0,0,1-2,.38,4.56,4.56,0,0,1-2-.48,3.79,3.79,0,0,1-1.57-1.37h0Zm7.09-9.65a4.37,4.37,0,0,0-.25-1.5,3.6,3.6,0,0,0-.7-1.22A3.26,3.26,0,0,0,34,7.07a3.65,3.65,0,0,0-1.52-.3A3.57,3.57,0,0,0,31,7.06a3.67,3.67,0,0,0-1.16.81,3.92,3.92,0,0,0-.76,1.22,4.23,4.23,0,0,0-.27,1.52,4.13,4.13,0,0,0,.27,1.51,3.56,3.56,0,0,0,.76,1.21,3.67,3.67,0,0,0,1.16.81,3.74,3.74,0,0,0,1.47.29A3.82,3.82,0,0,0,34,14.14a3.24,3.24,0,0,0,1.13-.81,3.55,3.55,0,0,0,.7-1.23A4.28,4.28,0,0,0,36.1,10.61Z"/><path class="cls-1" d="M43.46,13.88h0l3-8H48l-4.74,12a5,5,0,0,1-1.09,1.76,2.55,2.55,0,0,1-1.9.67A5.67,5.67,0,0,1,39,20.12l.14-1.26a3.11,3.11,0,0,0,1,.16,1.44,1.44,0,0,0,1.11-.43A3.8,3.8,0,0,0,42,17.33l.77-2-4.07-9.5h1.55Z"/><path class="cls-1" d="M50.15,7c0-.41,0-.78-.07-1.1h1.34c0,.25,0,.54.06.85s0,.57,0,.77h0a3.37,3.37,0,0,1,3.05-1.87l.48,0a3.21,3.21,0,0,1,.43.07L55.32,7A2.66,2.66,0,0,0,54.91,7a3.52,3.52,0,0,0-.56,0,2.93,2.93,0,0,0-1.06.2,2.33,2.33,0,0,0-.89.64,3.4,3.4,0,0,0-.61,1.12,5.16,5.16,0,0,0-.23,1.63v4.87H50.17V8C50.17,7.69,50.17,7.36,50.15,7Z"/><path class="cls-1" d="M59.26,2.19a.89.89,0,0,1-.3.7,1,1,0,0,1-.67.28,1,1,0,0,1-.67-.28.9.9,0,0,1-.31-.7.9.9,0,0,1,.31-.69.94.94,0,0,1,.67-.28A1,1,0,0,1,59,1.5.89.89,0,0,1,59.26,2.19ZM59,15.37H57.6V5.85H59Z"/><path class="cls-1" d="M63,17.27A4.83,4.83,0,0,0,66.59,19a4.63,4.63,0,0,0,1.73-.29,3,3,0,0,0,1.15-.81,3.11,3.11,0,0,0,.64-1.19,4.89,4.89,0,0,0,.2-1.45V13.5h0a3.62,3.62,0,0,1-1.56,1.38,4.58,4.58,0,0,1-2,.49,5.23,5.23,0,0,1-2-.37,4.6,4.6,0,0,1-1.55-1,4.51,4.51,0,0,1-1-1.54,5.44,5.44,0,0,1,0-3.84,4.8,4.8,0,0,1,1-1.56A4.6,4.6,0,0,1,64.65,6a5.05,5.05,0,0,1,2-.39,4.67,4.67,0,0,1,2,.49,3.74,3.74,0,0,1,1.57,1.4h0V5.86H71.7v9.42a7.17,7.17,0,0,1-.21,1.65,4.27,4.27,0,0,1-.8,1.61,4.51,4.51,0,0,1-1.58,1.22,5.93,5.93,0,0,1-2.58.49A6.38,6.38,0,0,1,64,19.74,6,6,0,0,1,62,18.33Zm.26-6.79a4.25,4.25,0,0,0,.24,1.43,3.54,3.54,0,0,0,.7,1.17,3.33,3.33,0,0,0,1.13.81,3.89,3.89,0,0,0,1.52.29,4.13,4.13,0,0,0,1.47-.26,3.51,3.51,0,0,0,1.16-.75A3.58,3.58,0,0,0,70.19,12a3.92,3.92,0,0,0,.28-1.52,3.6,3.6,0,0,0-.28-1.42,3.74,3.74,0,0,0-.76-1.18,3.67,3.67,0,0,0-1.16-.81,3.58,3.58,0,0,0-1.47-.3,3.72,3.72,0,0,0-1.52.3,3.33,3.33,0,0,0-1.13.81,3.59,3.59,0,0,0-.7,1.18A4.19,4.19,0,0,0,63.21,10.48Z"/><path class="cls-1" d="M76.51,7.42A3,3,0,0,1,77.79,6.1a4,4,0,0,1,1.92-.49,3.36,3.36,0,0,1,2.72,1.08,4.31,4.31,0,0,1,.9,2.85v5.83H82V10.1a7.06,7.06,0,0,0-.13-1.36,2.92,2.92,0,0,0-.41-1,2,2,0,0,0-.8-.68,2.87,2.87,0,0,0-1.25-.24,2.6,2.6,0,0,0-2,.9,3.41,3.41,0,0,0-.65,1.16,4.87,4.87,0,0,0-.25,1.66v4.88H75.09V0h1.38V7.42Z"/><path class="cls-1" d="M91.12,7H88.44v5.56a3.06,3.06,0,0,0,.1.87,1.27,1.27,0,0,0,.3.54,1,1,0,0,0,.45.27,2.32,2.32,0,0,0,1.17,0,3.89,3.89,0,0,0,.6-.22l.06,1.2a3.29,3.29,0,0,1-.76.21,4.57,4.57,0,0,1-.86.08,3.5,3.5,0,0,1-.82-.11,1.93,1.93,0,0,1-.79-.38,2,2,0,0,1-.6-.78A2.89,2.89,0,0,1,87.05,13V7h-2V5.85h2V3.16h1.39V5.85h2.68Z"/><path class="cls-1" d="M96.94,8.19a7.35,7.35,0,0,1,.61-3,7.77,7.77,0,0,1,1.66-2.43,7.85,7.85,0,0,1,2.46-1.64,7.64,7.64,0,0,1,3-.6,7.53,7.53,0,0,1,3,.6,7.77,7.77,0,0,1,4.11,4.07,7.35,7.35,0,0,1,.61,3,7.29,7.29,0,0,1-.61,3,7.76,7.76,0,0,1-14.24,0A7.29,7.29,0,0,1,96.94,8.19Zm1.21,0a6.24,6.24,0,0,0,.52,2.52,6.78,6.78,0,0,0,1.41,2.07,6.58,6.58,0,0,0,2.07,1.4,6.53,6.53,0,0,0,5.06,0,6.65,6.65,0,0,0,2.06-1.4,6.55,6.55,0,0,0,1.39-2.07,6.24,6.24,0,0,0,.51-2.52,6.4,6.4,0,0,0-.51-2.54,6.55,6.55,0,0,0-1.39-2.07,6.86,6.86,0,0,0-2.06-1.41,6.41,6.41,0,0,0-5.06,0,6.72,6.72,0,0,0-3.48,3.48A6.41,6.41,0,0,0,98.15,8.19Zm10.18,2.63a4.36,4.36,0,0,1-1.36,1.3,3.82,3.82,0,0,1-2.1.55,4.86,4.86,0,0,1-1.84-.35,4.5,4.5,0,0,1-1.45-1,4.41,4.41,0,0,1-1-1.46,4.82,4.82,0,0,1-.34-1.84,4.7,4.7,0,0,1,.34-1.83A4.31,4.31,0,0,1,103,3.84a4.68,4.68,0,0,1,1.84-.35,4.32,4.32,0,0,1,1.89.43,3.42,3.42,0,0,1,1.41,1.18l-1.06.81a2.7,2.7,0,0,0-.88-.82,2.45,2.45,0,0,0-1.32-.38,3.11,3.11,0,0,0-1.35.28,3,3,0,0,0-1,.74,3.5,3.5,0,0,0-.64,1.07,3.81,3.81,0,0,0-.22,1.27,3.9,3.9,0,0,0,.21,1.28,3.26,3.26,0,0,0,.64,1.08,3,3,0,0,0,1,.74,3,3,0,0,0,1.34.28,2.88,2.88,0,0,0,1.29-.31,2.81,2.81,0,0,0,1.11-1Z"/><path class="cls-1" d="M128.15,15.37h-9.23V13.84l5.9-5.95c.22-.22.43-.45.64-.7a5.89,5.89,0,0,0,.56-.78,4.53,4.53,0,0,0,.39-.87,3.29,3.29,0,0,0,.14-.94,2.8,2.8,0,0,0-.23-1.14,2.47,2.47,0,0,0-.62-.87,3,3,0,0,0-.91-.55,3.33,3.33,0,0,0-1.09-.19,2.8,2.8,0,0,0-2,.72,3.3,3.3,0,0,0-1,1.84l-1.44-.28a3.92,3.92,0,0,1,.54-1.4,4.19,4.19,0,0,1,1-1.12,4.44,4.44,0,0,1,1.31-.74A4.82,4.82,0,0,1,123.7.61a5.34,5.34,0,0,1,1.66.25,3.9,3.9,0,0,1,1.37.76,3.57,3.57,0,0,1,1,1.24A3.86,3.86,0,0,1,128,4.58a4.09,4.09,0,0,1-.19,1.28A5.94,5.94,0,0,1,127.34,7a7,7,0,0,1-.74,1c-.29.32-.59.64-.9.95l-5.18,5.14h7.63Z"/><path class="cls-1" d="M135.14.61a3.69,3.69,0,0,1,2.24.66A4.82,4.82,0,0,1,138.83,3a8.06,8.06,0,0,1,.78,2.43,15.93,15.93,0,0,1,0,5.51,8.09,8.09,0,0,1-.78,2.42,4.7,4.7,0,0,1-1.45,1.72,4.22,4.22,0,0,1-4.5,0,4.7,4.7,0,0,1-1.45-1.72,7.81,7.81,0,0,1-.77-2.42,16.62,16.62,0,0,1,0-5.51A7.79,7.79,0,0,1,131.43,3a4.82,4.82,0,0,1,1.45-1.73A3.71,3.71,0,0,1,135.14.61Zm0,1.24a2.22,2.22,0,0,0-1.58.59,4,4,0,0,0-1,1.5A8.66,8.66,0,0,0,132.05,6a18.44,18.44,0,0,0-.14,2.2,18.44,18.44,0,0,0,.14,2.2,8.66,8.66,0,0,0,.51,2,4,4,0,0,0,1,1.48,2.43,2.43,0,0,0,3.15,0,4.14,4.14,0,0,0,1-1.48,8.19,8.19,0,0,0,.52-2,16.21,16.21,0,0,0,0-4.4,8.2,8.2,0,0,0-.52-2.05,4.14,4.14,0,0,0-1-1.5A2.23,2.23,0,0,0,135.14,1.85Z"/><path class="cls-1" d="M150.88,15.37h-9.23V13.84l5.9-5.95c.22-.22.43-.45.64-.7a5.89,5.89,0,0,0,.56-.78,4,4,0,0,0,.38-.87,3,3,0,0,0,.15-.94,2.8,2.8,0,0,0-.23-1.14,2.47,2.47,0,0,0-.62-.87,3,3,0,0,0-.91-.55,3.33,3.33,0,0,0-1.09-.19,2.8,2.8,0,0,0-2,.72,3.3,3.3,0,0,0-1,1.84L142,4.13a4.1,4.1,0,0,1,.53-1.4,4.23,4.23,0,0,1,1-1.12,4.57,4.57,0,0,1,1.31-.74,4.82,4.82,0,0,1,1.59-.26,5.34,5.34,0,0,1,1.66.25,3.9,3.9,0,0,1,1.37.76,3.57,3.57,0,0,1,.95,1.24,3.86,3.86,0,0,1,.36,1.72,4.09,4.09,0,0,1-.19,1.28A5.94,5.94,0,0,1,150.07,7a7,7,0,0,1-.74,1c-.29.32-.59.64-.9.95l-5.18,5.14h7.63Z"/><path class="cls-1" d="M158.8,15.37h-1.46V2.78L154.74,5l-.89-1,3.66-3h1.29Z"/><path class="cls-1" d="M163.76,18.21H162.6L164,13.43h1.44Z"/><path class="cls-1" d="M178.92,15.37h-1.46V9.17L172.07,1h1.83l4.33,7,4.37-7h1.71l-5.39,8.2Z"/><path class="cls-1" d="M191.29,15.73a5.61,5.61,0,0,1-2.66-.56A4.76,4.76,0,0,1,187,13.76a5.39,5.39,0,0,1-.84-1.86,8.78,8.78,0,0,1-.23-1.9V1h1.46V9.84a6.88,6.88,0,0,0,.2,1.7,4.51,4.51,0,0,0,.66,1.46,3.51,3.51,0,0,0,1.21,1,4.58,4.58,0,0,0,3.7,0,3.51,3.51,0,0,0,1.21-1,4.13,4.13,0,0,0,.66-1.46,6.88,6.88,0,0,0,.2-1.7V1h1.46v9a8.78,8.78,0,0,1-.23,1.9,5.39,5.39,0,0,1-.84,1.86,4.71,4.71,0,0,1-1.66,1.41A5.62,5.62,0,0,1,191.29,15.73Z"/><path class="cls-1" d="M201.69,7.44h0L208.56,1h2.1L203.39,7.5l7.67,7.87h-2.15l-7.2-7.67h0v7.67h-1.46V1h1.46Z"/><path class="cls-1" d="M213.9,15.37h-1.61L218.51,1h1.43l6.18,14.4h-1.63l-1.58-3.78h-7.45ZM216,10.24h6.35l-3.18-7.65Z"/><path class="cls-1" d="M235.4,3.3a3.38,3.38,0,0,0-1.2-1,3.62,3.62,0,0,0-1.77-.4,4.16,4.16,0,0,0-1.08.16,3.35,3.35,0,0,0-1,.5,2.64,2.64,0,0,0-.72.84,2.53,2.53,0,0,0-.27,1.2,2.19,2.19,0,0,0,.26,1.14,2.53,2.53,0,0,0,.7.76,3.94,3.94,0,0,0,1,.52c.37.14.76.27,1.17.41s1,.34,1.51.53a5.31,5.31,0,0,1,1.37.74,3.52,3.52,0,0,1,1,1.16,3.71,3.71,0,0,1,.38,1.77,3.8,3.8,0,0,1-1.48,3.15,4.57,4.57,0,0,1-1.51.76,6.18,6.18,0,0,1-1.7.24,6.44,6.44,0,0,1-1.3-.13,6,6,0,0,1-1.24-.4,5,5,0,0,1-1.1-.67,4.68,4.68,0,0,1-.89-.94l1.26-.93A3.85,3.85,0,0,0,230.1,14a3.68,3.68,0,0,0,2,.52,4,4,0,0,0,1.12-.17,3.15,3.15,0,0,0,1-.53,2.77,2.77,0,0,0,.75-.88,2.32,2.32,0,0,0,.3-1.2,2.36,2.36,0,0,0-.3-1.25,2.5,2.5,0,0,0-.78-.84A4.88,4.88,0,0,0,233.08,9l-1.32-.44c-.47-.15-.94-.32-1.4-.51a4.8,4.8,0,0,1-1.24-.74,3.54,3.54,0,0,1-.89-1.13,3.73,3.73,0,0,1-.33-1.65,3.75,3.75,0,0,1,.41-1.79,4,4,0,0,1,1.09-1.24,4.76,4.76,0,0,1,1.49-.71A6,6,0,0,1,232.5.61a5.49,5.49,0,0,1,2.5.52,4.15,4.15,0,0,1,1.56,1.23Z"/><path class="cls-1" d="M239.46,1h1.46V7.22h7.87V1h1.45v14.4h-1.45V8.57h-7.87v6.8h-1.46Z"/><path class="cls-1" d="M255.32,15.37h-1.45V1h1.45Z"/><path class="cls-1" d="M260.4,7.44h0L267.27,1h2.1L262.11,7.5l7.67,7.87h-2.16l-7.2-7.67h0v7.67h-1.46V1h1.46Z"/><path class="cls-1" d="M272.61,15.37H271L277.23,1h1.42l6.18,14.4h-1.62l-1.59-3.78h-7.44Zm2.11-5.13h6.35L277.9,2.59Z"/><path class="cls-1" d="M287,1h4.78a8.48,8.48,0,0,1,2.69.45,7.35,7.35,0,0,1,2.45,1.35A6.85,6.85,0,0,1,298.67,5a7.08,7.08,0,0,1,.67,3.14,7,7,0,0,1-.67,3.15,6.92,6.92,0,0,1-1.76,2.25,7.53,7.53,0,0,1-2.45,1.35,8.48,8.48,0,0,1-2.69.45H287Zm1.46,13.1h2.91a7.31,7.31,0,0,0,2.84-.51,5.84,5.84,0,0,0,2-1.33,5.41,5.41,0,0,0,1.19-1.88,6.14,6.14,0,0,0,0-4.36,5.41,5.41,0,0,0-1.19-1.88,6,6,0,0,0-2-1.34,7.5,7.5,0,0,0-2.84-.5h-2.91Z"/><path class="cls-1" d="M316.59,8.17a7.86,7.86,0,0,1-.57,3,7.1,7.1,0,0,1-1.57,2.38,7.18,7.18,0,0,1-2.38,1.58,8.07,8.07,0,0,1-6,0,7.08,7.08,0,0,1-2.38-1.58,7,7,0,0,1-1.58-2.38,7.86,7.86,0,0,1-.57-3,7.86,7.86,0,0,1,.57-3,7.12,7.12,0,0,1,1.58-2.39,7.21,7.21,0,0,1,2.38-1.57,8.07,8.07,0,0,1,6,0,7.31,7.31,0,0,1,2.38,1.57A7.25,7.25,0,0,1,316,5.14,7.86,7.86,0,0,1,316.59,8.17Zm-1.55,0a7.11,7.11,0,0,0-.4-2.4,6.19,6.19,0,0,0-1.18-2,5.78,5.78,0,0,0-1.88-1.37,5.89,5.89,0,0,0-2.49-.5,5.72,5.72,0,0,0-4.38,1.87,6.16,6.16,0,0,0-1.17,2,6.88,6.88,0,0,0-.41,2.4,6.88,6.88,0,0,0,.41,2.4,6,6,0,0,0,1.17,2,5.76,5.76,0,0,0,4.38,1.86,6.05,6.05,0,0,0,2.49-.5,5.9,5.9,0,0,0,1.88-1.36,6,6,0,0,0,1.18-2A7.11,7.11,0,0,0,315,8.18Z"/><path class="cls-1" d="M326.19,15.37h-1.46V1h1.46Z"/><path class="cls-1" d="M340,13.23h0V1h1.46v14.4h-1.83L331.3,3h0V15.37H329.8V1h1.84Z"/><path class="cls-1" d="M357.36,13a6.14,6.14,0,0,1-.89,1,6,6,0,0,1-1.2.86,6.93,6.93,0,0,1-3.3.8,7.8,7.8,0,0,1-3-.57,6.89,6.89,0,0,1-2.38-1.58A6.93,6.93,0,0,1,345,11.2a7.86,7.86,0,0,1-.56-3,7.86,7.86,0,0,1,.57-3,7.13,7.13,0,0,1,4-4,7.64,7.64,0,0,1,3-.57,7.28,7.28,0,0,1,1.55.16,7.36,7.36,0,0,1,1.44.47,6.38,6.38,0,0,1,1.22.71,4.29,4.29,0,0,1,.91,1l-1.22.9a3.7,3.7,0,0,0-.6-.69,3.82,3.82,0,0,0-.88-.61,5.45,5.45,0,0,0-1.11-.43A4.85,4.85,0,0,0,352,1.91a6,6,0,0,0-2.52.5,5.88,5.88,0,0,0-1.88,1.37,6,6,0,0,0-1.18,2,7.25,7.25,0,0,0,0,4.78,6.29,6.29,0,0,0,1.19,2,5.88,5.88,0,0,0,1.88,1.37,6.06,6.06,0,0,0,2.5.5,5.66,5.66,0,0,0,2.36-.51,4.51,4.51,0,0,0,1.87-1.62Z"/><path class="cls-1" d="M361.87,14.4a1.07,1.07,0,0,1-.31.76,1,1,0,0,1-.79.34,1,1,0,0,1-.79-.34,1.07,1.07,0,0,1-.31-.76,1.1,1.1,0,0,1,.31-.77,1,1,0,0,1,.79-.33,1,1,0,0,1,.79.33A1.1,1.1,0,0,1,361.87,14.4Z"/><path class="cls-1" d="M370.31,15.37H368.7L374.92,1h1.43l6.18,14.4H380.9l-1.58-3.78h-7.45Zm2.11-5.13h6.35L375.6,2.59Z"/><path class="cls-1" d="M386.15,14.07h6.71v1.3h-8.17V1h1.46Z"/><path class="cls-1" d="M396.52,14.07h6.71v1.3h-8.17V1h1.46Z"/><path class="cls-1" d="M412,15.37h-1.46V1h4.23a9.36,9.36,0,0,1,2,.2,4.59,4.59,0,0,1,1.56.66,3.29,3.29,0,0,1,1,1.19,4.05,4.05,0,0,1,.36,1.79,3.52,3.52,0,0,1-.28,1.44,3.59,3.59,0,0,1-.77,1.13,3.85,3.85,0,0,1-1.16.77,5.28,5.28,0,0,1-1.47.36l4.22,6.86h-1.79l-4-6.73H412Zm0-8h2.54a5,5,0,0,0,2.73-.64,2.17,2.17,0,0,0,1-1.93,2.47,2.47,0,0,0-.27-1.2,2.21,2.21,0,0,0-.73-.79,3.57,3.57,0,0,0-1.14-.45,7.62,7.62,0,0,0-1.49-.14H412Z"/><path class="cls-1" d="M424,15.37h-1.46V1H424Z"/><path class="cls-1" d="M438.67,3.57a5.3,5.3,0,0,0-1.79-1.23,6.16,6.16,0,0,0-2.38-.43,5.68,5.68,0,0,0-4.38,1.87,6.4,6.4,0,0,0-1.19,2,6.88,6.88,0,0,0-.41,2.4,6.88,6.88,0,0,0,.41,2.4,6.24,6.24,0,0,0,1.19,2A5.9,5.9,0,0,0,432,13.93a6.05,6.05,0,0,0,2.49.5,8.72,8.72,0,0,0,2.24-.26,5.82,5.82,0,0,0,1.65-.67V9.12H435V7.83h4.82v6.49a9.23,9.23,0,0,1-2.55,1.06,11.35,11.35,0,0,1-2.82.35,7.8,7.8,0,0,1-3-.57,7,7,0,0,1-3.93-4,7.86,7.86,0,0,1-.56-3,7.86,7.86,0,0,1,.57-3,7.12,7.12,0,0,1,1.58-2.39,7.21,7.21,0,0,1,2.38-1.57,7.63,7.63,0,0,1,3-.57,8.16,8.16,0,0,1,3,.51,6.47,6.47,0,0,1,2.19,1.44Z"/><path class="cls-1" d="M443.29,1h1.46V7.22h7.87V1h1.46v14.4h-1.46V8.57h-7.87v6.8h-1.46Z"/><path class="cls-1" d="M462.55,15.37h-1.46V2.27h-4.82V1h11.1v1.3h-4.82Z"/><path class="cls-1" d="M476.52,3.3a3.38,3.38,0,0,0-1.2-1,3.62,3.62,0,0,0-1.77-.4,4.16,4.16,0,0,0-1.08.16,3.24,3.24,0,0,0-1,.5,2.64,2.64,0,0,0-.72.84,2.53,2.53,0,0,0-.28,1.2,2.19,2.19,0,0,0,.27,1.14,2.41,2.41,0,0,0,.7.76,3.78,3.78,0,0,0,1,.52l1.16.41c.51.16,1,.34,1.52.53a5.31,5.31,0,0,1,1.37.74,3.52,3.52,0,0,1,1,1.16,3.71,3.71,0,0,1,.38,1.77,4,4,0,0,1-.41,1.86,3.9,3.9,0,0,1-1.08,1.29,4.52,4.52,0,0,1-1.5.76,6.18,6.18,0,0,1-1.7.24,6.37,6.37,0,0,1-1.3-.13,5.8,5.8,0,0,1-1.24-.4,5,5,0,0,1-1.1-.67,4.41,4.41,0,0,1-.89-.94l1.26-.93A3.85,3.85,0,0,0,471.22,14a3.66,3.66,0,0,0,2,.52,4,4,0,0,0,1.12-.17,3.25,3.25,0,0,0,1-.53,3,3,0,0,0,.75-.88,2.32,2.32,0,0,0,.3-1.2,2.36,2.36,0,0,0-.3-1.25,2.72,2.72,0,0,0-.78-.84A5.1,5.1,0,0,0,474.2,9l-1.32-.44c-.48-.15-.94-.32-1.4-.51a4.8,4.8,0,0,1-1.24-.74,3.54,3.54,0,0,1-.89-1.13A3.73,3.73,0,0,1,469,4.57a3.75,3.75,0,0,1,.41-1.79,3.83,3.83,0,0,1,1.09-1.24A4.66,4.66,0,0,1,472,.83a5.93,5.93,0,0,1,1.6-.22,5.54,5.54,0,0,1,2.51.52,4.15,4.15,0,0,1,1.56,1.23Z"/><path class="cls-1" d="M487.55,15.37H486.1V1h4.22a9.22,9.22,0,0,1,2,.2,4.65,4.65,0,0,1,1.57.66,3.17,3.17,0,0,1,1,1.19,3.91,3.91,0,0,1,.37,1.79A3.7,3.7,0,0,1,495,6.25a3.46,3.46,0,0,1-.78,1.13,3.62,3.62,0,0,1-1.16.77,5.12,5.12,0,0,1-1.46.36l4.21,6.86H494l-4-6.73h-2.44Zm0-8h2.55a4.9,4.9,0,0,0,2.72-.64,2.17,2.17,0,0,0,1-1.93,2.59,2.59,0,0,0-.26-1.2,2.15,2.15,0,0,0-.74-.79,3.48,3.48,0,0,0-1.14-.45,7.44,7.44,0,0,0-1.48-.14h-2.61Z"/><path class="cls-1" d="M499.58,14.07h7.71v1.3h-9.17V1h8.93v1.3h-7.47v5h7v1.3h-7Z"/><path class="cls-1" d="M517.2,3.3a3.38,3.38,0,0,0-1.2-1,3.62,3.62,0,0,0-1.77-.4,4.16,4.16,0,0,0-1.08.16,3.24,3.24,0,0,0-1,.5,2.64,2.64,0,0,0-.72.84,2.53,2.53,0,0,0-.28,1.2,2.19,2.19,0,0,0,.27,1.14,2.53,2.53,0,0,0,.7.76,3.78,3.78,0,0,0,1,.52c.37.14.76.27,1.17.41s1,.34,1.51.53a5.31,5.31,0,0,1,1.37.74,3.52,3.52,0,0,1,1,1.16,3.71,3.71,0,0,1,.38,1.77,4,4,0,0,1-.41,1.86,3.9,3.9,0,0,1-1.08,1.29,4.62,4.62,0,0,1-1.5.76,6.18,6.18,0,0,1-1.7.24,6.44,6.44,0,0,1-1.3-.13,5.8,5.8,0,0,1-1.24-.4,5,5,0,0,1-1.1-.67,4.68,4.68,0,0,1-.89-.94l1.26-.93A3.85,3.85,0,0,0,511.9,14a3.66,3.66,0,0,0,2,.52A4,4,0,0,0,515,14.3a3.25,3.25,0,0,0,1-.53,2.9,2.9,0,0,0,.75-.88,2.32,2.32,0,0,0,.3-1.2,2.36,2.36,0,0,0-.3-1.25A2.61,2.61,0,0,0,516,9.6,5.1,5.1,0,0,0,514.88,9c-.42-.15-.86-.29-1.32-.44s-.94-.32-1.4-.51a4.8,4.8,0,0,1-1.24-.74A3.54,3.54,0,0,1,510,6.22a3.73,3.73,0,0,1-.33-1.65,3.75,3.75,0,0,1,.41-1.79,3.83,3.83,0,0,1,1.09-1.24,4.66,4.66,0,0,1,1.49-.71,6,6,0,0,1,1.6-.22,5.54,5.54,0,0,1,2.51.52,4.15,4.15,0,0,1,1.56,1.23Z"/><path class="cls-1" d="M522.72,14.07h7.71v1.3h-9.17V1h8.92v1.3h-7.46v5h7v1.3h-7Z"/><path class="cls-1" d="M534.42,15.37H533V1h4.23a9.22,9.22,0,0,1,2,.2,4.56,4.56,0,0,1,1.57.66,3.17,3.17,0,0,1,1,1.19,3.91,3.91,0,0,1,.37,1.79,3.53,3.53,0,0,1-.29,1.44,3.43,3.43,0,0,1-.77,1.13,3.62,3.62,0,0,1-1.16.77,5.12,5.12,0,0,1-1.46.36l4.21,6.86h-1.79l-4-6.73h-2.45Zm0-8H537a5,5,0,0,0,2.73-.64,2.18,2.18,0,0,0,.95-1.93,2.59,2.59,0,0,0-.26-1.2,2.24,2.24,0,0,0-.74-.79,3.48,3.48,0,0,0-1.14-.45A7.44,7.44,0,0,0,537,2.23h-2.61Z"/><path class="cls-1" d="M549.58,13.48h0L554.29,1h1.57l-5.51,14.4H548.8L543.31,1h1.59Z"/><path class="cls-1" d="M559.16,14.07h7.71v1.3H557.7V1h8.92v1.3h-7.46v5h7v1.3h-7Z"/><path class="cls-1" d="M569.41,1h4.78a8.48,8.48,0,0,1,2.69.45,7.3,7.3,0,0,1,2.44,1.35A6.72,6.72,0,0,1,581.08,5a6.94,6.94,0,0,1,.67,3.14,6.9,6.9,0,0,1-.67,3.15,6.78,6.78,0,0,1-1.76,2.25,7.48,7.48,0,0,1-2.44,1.35,8.48,8.48,0,0,1-2.69.45h-4.78Zm1.45,13.1h2.91a7.24,7.24,0,0,0,2.84-.51,5.79,5.79,0,0,0,2-1.33,5.56,5.56,0,0,0,1.19-1.88,6.14,6.14,0,0,0,0-4.36,5.56,5.56,0,0,0-1.19-1.88,6,6,0,0,0-2-1.34,7.43,7.43,0,0,0-2.84-.5h-2.91Z"/><path class="cls-1" d="M585.7,14.4a1.07,1.07,0,0,1-.31.76,1,1,0,0,1-.79.34,1,1,0,0,1-.79-.34,1.12,1.12,0,0,1-.31-.76,1.14,1.14,0,0,1,.31-.77,1,1,0,0,1,.79-.33,1,1,0,0,1,.79.33A1.1,1.1,0,0,1,585.7,14.4Z"/></g></g></svg>